<svg xmlns="http://www.w3.org/2000/svg" xmlns:xlink="http://www.w3.org/1999/xlink" width="1120" zoomAndPan="magnify" viewBox="0 0 840 839.999992" height="1120" preserveAspectRatio="xMidYMid meet" version="1.0"><metadata><ContainsAiGeneratedContent>Yes</ContainsAiGeneratedContent></metadata><defs><g/></defs><g fill="#0b72af" fill-opacity="1"><g transform="translate(4.564457, 508.837905)"><g><path d="M 50.25 0 C 44.96875 0 40.800781 -0.0390625 37.75 -0.125 C 34.695312 -0.207031 32.300781 -0.332031 30.5625 -0.5 C 28.832031 -0.664062 27.515625 -0.785156 26.609375 -0.859375 C 25.703125 -0.941406 24.753906 -1.148438 23.765625 -1.484375 C 20.296875 -2.472656 17.445312 -4.082031 15.21875 -6.3125 C 12.988281 -8.539062 11.210938 -11.835938 9.890625 -16.203125 C 8.578125 -20.578125 7.671875 -26.226562 7.171875 -33.15625 C 6.679688 -40.09375 6.4375 -48.84375 6.4375 -59.40625 L 6.4375 -112.125 C 6.4375 -114.425781 6.519531 -117.144531 6.6875 -120.28125 C 6.851562 -123.414062 7.054688 -126.46875 7.296875 -129.4375 C 7.546875 -132.40625 7.796875 -135.207031 8.046875 -137.84375 C 8.296875 -140.488281 8.582031 -142.472656 8.90625 -143.796875 C 10.0625 -149.566406 11.914062 -153.976562 14.46875 -157.03125 C 17.03125 -160.09375 20.625 -162.28125 25.25 -163.59375 C 26.238281 -163.757812 27.269531 -163.925781 28.34375 -164.09375 C 29.414062 -164.257812 30.816406 -164.421875 32.546875 -164.578125 C 34.273438 -164.742188 36.539062 -164.867188 39.34375 -164.953125 C 42.15625 -165.035156 45.789062 -165.078125 50.25 -165.078125 L 78.453125 -165.078125 L 78.453125 -129.1875 L 70.53125 -129.1875 C 67.5625 -129.1875 65.171875 -129.144531 63.359375 -129.0625 C 61.546875 -128.988281 60.0625 -128.867188 58.90625 -128.703125 C 57.75 -128.535156 56.796875 -128.203125 56.046875 -127.703125 C 55.304688 -127.210938 54.609375 -126.640625 53.953125 -125.984375 C 52.472656 -124.492188 51.566406 -122.800781 51.234375 -120.90625 C 50.898438 -119.007812 50.734375 -115.085938 50.734375 -109.140625 L 50.734375 -55.9375 C 50.734375 -50 50.9375 -46.078125 51.34375 -44.171875 C 51.757812 -42.273438 52.628906 -40.585938 53.953125 -39.109375 C 54.609375 -38.285156 55.304688 -37.664062 56.046875 -37.25 C 56.796875 -36.832031 57.75 -36.539062 58.90625 -36.375 C 60.0625 -36.21875 61.546875 -36.097656 63.359375 -36.015625 C 65.171875 -35.929688 67.5625 -35.890625 70.53125 -35.890625 L 79.6875 -35.890625 L 79.6875 0 Z M 50.25 0 "/></g></g></g><g fill="#0b72af" fill-opacity="1"><g transform="translate(86.734336, 508.837905)"><g><path d="M 44.296875 0 C 34.734375 0 27.554688 -0.492188 22.765625 -1.484375 C 17.984375 -2.472656 14.351562 -4.125 11.875 -6.4375 C 10.5625 -7.59375 9.570312 -8.742188 8.90625 -9.890625 C 8.25 -11.046875 7.710938 -12.570312 7.296875 -14.46875 C 6.890625 -16.375 6.644531 -18.9375 6.5625 -22.15625 C 6.476562 -25.375 6.4375 -29.703125 6.4375 -35.140625 L 6.4375 -91.328125 C 6.4375 -96.773438 6.476562 -101.101562 6.5625 -104.3125 C 6.644531 -107.53125 6.890625 -110.128906 7.296875 -112.109375 C 7.710938 -114.097656 8.25 -115.664062 8.90625 -116.8125 C 9.570312 -117.96875 10.5625 -119.125 11.875 -120.28125 C 14.351562 -122.59375 17.984375 -124.242188 22.765625 -125.234375 C 27.554688 -126.222656 34.734375 -126.71875 44.296875 -126.71875 L 66.078125 -126.71875 C 75.484375 -126.71875 82.578125 -126.222656 87.359375 -125.234375 C 92.148438 -124.242188 95.78125 -122.59375 98.25 -120.28125 C 99.40625 -119.125 100.351562 -117.96875 101.09375 -116.8125 C 101.84375 -115.664062 102.421875 -114.097656 102.828125 -112.109375 C 103.242188 -110.128906 103.492188 -107.53125 103.578125 -104.3125 C 103.660156 -101.101562 103.703125 -96.773438 103.703125 -91.328125 L 103.703125 -35.140625 C 103.703125 -29.703125 103.660156 -25.375 103.578125 -22.15625 C 103.492188 -18.9375 103.242188 -16.375 102.828125 -14.46875 C 102.421875 -12.570312 101.84375 -11.046875 101.09375 -9.890625 C 100.351562 -8.742188 99.40625 -7.59375 98.25 -6.4375 C 95.78125 -4.125 92.148438 -2.472656 87.359375 -1.484375 C 82.578125 -0.492188 75.484375 0 66.078125 0 Z M 64.34375 -82.90625 C 64.34375 -87.695312 63.597656 -91.164062 62.109375 -93.3125 C 60.628906 -95.457031 58.160156 -96.53125 54.703125 -96.53125 C 48.753906 -96.53125 45.78125 -91.988281 45.78125 -82.90625 L 45.78125 -43.0625 C 45.78125 -38.28125 46.523438 -34.816406 48.015625 -32.671875 C 49.503906 -30.523438 51.976562 -29.453125 55.4375 -29.453125 C 61.375 -29.453125 64.34375 -33.988281 64.34375 -43.0625 Z M 64.34375 -82.90625 "/></g></g></g><g fill="#0b72af" fill-opacity="1"><g transform="translate(196.871652, 508.837905)"><g><path d="M 33.65625 0.5 C 26.5625 0.5 21.488281 0.046875 18.4375 -0.859375 C 15.382812 -1.773438 12.953125 -3.550781 11.140625 -6.1875 C 9.648438 -8.5 8.492188 -11.960938 7.671875 -16.578125 C 6.847656 -21.203125 6.4375 -26.484375 6.4375 -32.421875 L 6.4375 -99.984375 C 6.4375 -106.085938 6.804688 -110.707031 7.546875 -113.84375 C 8.285156 -116.976562 9.644531 -119.535156 11.625 -121.515625 C 15.59375 -125.484375 21.207031 -127.46875 28.46875 -127.46875 L 36.875 -127.46875 C 40.007812 -127.46875 42.691406 -127.300781 44.921875 -126.96875 C 47.148438 -126.632812 49.128906 -126.097656 50.859375 -125.359375 C 52.585938 -124.617188 54.195312 -123.585938 55.6875 -122.265625 C 57.175781 -120.941406 58.742188 -119.207031 60.390625 -117.0625 L 63.359375 -113.359375 L 63.359375 -126.71875 L 102.71875 -126.71875 L 102.71875 0 L 63.359375 0 L 63.359375 -13.859375 C 61.710938 -10.722656 60.226562 -8.207031 58.90625 -6.3125 C 57.582031 -4.414062 56.132812 -2.972656 54.5625 -1.984375 C 53 -0.992188 51.226562 -0.332031 49.25 0 C 47.269531 0.332031 44.710938 0.5 41.578125 0.5 Z M 63.359375 -83.65625 C 63.359375 -93.226562 60.390625 -98.015625 54.453125 -98.015625 C 48.671875 -98.015625 45.78125 -93.226562 45.78125 -83.65625 L 45.78125 -44.546875 C 45.78125 -34.972656 48.753906 -30.1875 54.703125 -30.1875 C 60.472656 -30.1875 63.359375 -34.972656 63.359375 -44.546875 Z M 63.359375 -83.65625 "/></g></g></g><g fill="#0b72af" fill-opacity="1"><g transform="translate(306.761478, 508.837905)"><g><path d="M 34.15625 0 C 26.894531 0 21.445312 -0.617188 17.8125 -1.859375 C 14.1875 -3.097656 11.382812 -5.363281 9.40625 -8.65625 C 8.75 -9.8125 8.210938 -10.84375 7.796875 -11.75 C 7.378906 -12.664062 7.085938 -14.03125 6.921875 -15.84375 C 6.765625 -17.65625 6.644531 -20.210938 6.5625 -23.515625 C 6.476562 -26.816406 6.4375 -31.519531 6.4375 -37.625 L 6.4375 -98.25 C 6.4375 -101.550781 6.4375 -104.109375 6.4375 -105.921875 C 6.4375 -107.742188 6.476562 -109.191406 6.5625 -110.265625 C 6.644531 -111.335938 6.804688 -112.203125 7.046875 -112.859375 C 7.296875 -113.515625 7.585938 -114.335938 7.921875 -115.328125 C 8.578125 -117.472656 9.523438 -119.285156 10.765625 -120.765625 C 12.003906 -122.253906 13.65625 -123.410156 15.71875 -124.234375 C 17.78125 -125.066406 20.335938 -125.6875 23.390625 -126.09375 C 26.441406 -126.507812 30.113281 -126.71875 34.40625 -126.71875 L 70.046875 -126.71875 L 70.046875 -96.765625 L 56.921875 -96.765625 C 54.609375 -96.765625 52.707031 -96.554688 51.21875 -96.140625 C 49.738281 -95.734375 48.585938 -94.953125 47.765625 -93.796875 C 46.941406 -92.640625 46.40625 -91.03125 46.15625 -88.96875 C 45.90625 -86.90625 45.78125 -84.144531 45.78125 -80.6875 L 45.78125 -45.046875 C 45.78125 -41.742188 45.90625 -39.101562 46.15625 -37.125 C 46.40625 -35.144531 46.941406 -33.617188 47.765625 -32.546875 C 48.585938 -31.472656 49.78125 -30.769531 51.34375 -30.4375 C 52.914062 -30.113281 55.023438 -29.953125 57.671875 -29.953125 L 70.046875 -29.953125 L 70.046875 0 Z M 34.15625 0 "/></g></g></g><g fill="#0b72af" fill-opacity="1"><g transform="translate(379.278839, 508.837905)"><g><path d="M 7.171875 -165.078125 L 46.53125 -165.078125 L 46.53125 -113.109375 C 48.175781 -115.742188 49.863281 -117.96875 51.59375 -119.78125 C 53.332031 -121.601562 55.273438 -123.09375 57.421875 -124.25 C 59.566406 -125.40625 62.039062 -126.1875 64.84375 -126.59375 C 67.644531 -127.007812 70.945312 -127.21875 74.75 -127.21875 C 82.664062 -127.21875 88.6875 -126.429688 92.8125 -124.859375 C 96.9375 -123.296875 99.90625 -120.613281 101.71875 -116.8125 C 102.21875 -115.664062 102.628906 -114.632812 102.953125 -113.71875 C 103.285156 -112.8125 103.535156 -111.328125 103.703125 -109.265625 C 103.867188 -107.203125 103.992188 -104.234375 104.078125 -100.359375 C 104.160156 -96.484375 104.203125 -91 104.203125 -83.90625 L 104.203125 0 L 64.84375 0 L 64.84375 -83.65625 C 64.84375 -93.226562 61.707031 -98.015625 55.4375 -98.015625 C 49.5 -98.015625 46.53125 -93.0625 46.53125 -83.15625 L 46.53125 0 L 7.171875 0 Z M 7.171875 -165.078125 "/></g></g></g><g fill="#040333" fill-opacity="1"><g transform="translate(490.658182, 508.837905)"><g><path d="M 7.921875 -165.078125 L 52.21875 -165.078125 L 52.21875 -100.484375 L 71.03125 -100.484375 L 71.03125 -165.078125 L 115.328125 -165.078125 L 115.328125 0 L 71.03125 0 L 71.03125 -64.59375 L 52.21875 -64.59375 L 52.21875 0 L 7.921875 0 Z M 7.921875 -165.078125 "/></g></g></g><g fill="#040333" fill-opacity="1"><g transform="translate(613.912979, 508.837905)"><g><path d="M 48.515625 0 C 43.398438 0 39.109375 -0.125 35.640625 -0.375 C 32.171875 -0.625 29.195312 -1.078125 26.71875 -1.734375 C 24.25 -2.390625 22.109375 -3.296875 20.296875 -4.453125 C 18.484375 -5.609375 16.75 -7.09375 15.09375 -8.90625 C 13.613281 -10.394531 12.335938 -12.003906 11.265625 -13.734375 C 10.191406 -15.460938 9.363281 -17.441406 8.78125 -19.671875 C 8.207031 -21.898438 7.796875 -24.539062 7.546875 -27.59375 C 7.296875 -30.644531 7.171875 -34.398438 7.171875 -38.859375 L 7.171875 -126.71875 L 46.53125 -126.71875 L 46.53125 -43.0625 C 46.53125 -33.988281 49.5 -29.453125 55.4375 -29.453125 C 58.90625 -29.453125 61.378906 -30.523438 62.859375 -32.671875 C 64.347656 -34.816406 65.09375 -38.28125 65.09375 -43.0625 L 65.09375 -126.71875 L 104.4375 -126.71875 L 104.4375 -38.859375 C 104.4375 -34.566406 104.3125 -30.851562 104.0625 -27.71875 C 103.820312 -24.582031 103.410156 -21.898438 102.828125 -19.671875 C 102.253906 -17.441406 101.429688 -15.460938 100.359375 -13.734375 C 99.285156 -12.003906 98.007812 -10.394531 96.53125 -8.90625 C 94.707031 -7.09375 92.929688 -5.609375 91.203125 -4.453125 C 89.472656 -3.296875 87.367188 -2.390625 84.890625 -1.734375 C 82.421875 -1.078125 79.453125 -0.625 75.984375 -0.375 C 72.515625 -0.125 68.222656 0 63.109375 0 Z M 48.515625 0 "/></g></g></g><g fill="#040333" fill-opacity="1"><g transform="translate(725.535291, 508.837905)"><g><path d="M 68.3125 0.5 C 65.175781 0.5 62.578125 0.332031 60.515625 0 C 58.453125 -0.332031 56.675781 -0.992188 55.1875 -1.984375 C 53.707031 -2.972656 52.304688 -4.414062 50.984375 -6.3125 C 49.660156 -8.207031 48.175781 -10.722656 46.53125 -13.859375 L 46.53125 0 L 7.171875 0 L 7.171875 -165.078125 L 46.53125 -165.078125 L 46.53125 -113.609375 L 49.5 -117.3125 C 51.144531 -119.457031 52.671875 -121.191406 54.078125 -122.515625 C 55.484375 -123.835938 57.050781 -124.867188 58.78125 -125.609375 C 60.507812 -126.347656 62.488281 -126.84375 64.71875 -127.09375 C 66.945312 -127.34375 69.710938 -127.46875 73.015625 -127.46875 L 81.421875 -127.46875 C 90.003906 -127.46875 96.191406 -124.828125 99.984375 -119.546875 C 101.304688 -117.722656 102.210938 -115.328125 102.703125 -112.359375 C 103.203125 -109.390625 103.453125 -105.347656 103.453125 -100.234375 L 103.453125 -32.421875 C 103.453125 -26.648438 103.039062 -21.410156 102.21875 -16.703125 C 101.394531 -12.003906 100.238281 -8.5 98.75 -6.1875 C 96.9375 -3.550781 94.503906 -1.773438 91.453125 -0.859375 C 88.398438 0.046875 83.328125 0.5 76.234375 0.5 Z M 64.109375 -83.65625 C 64.109375 -93.226562 61.132812 -98.015625 55.1875 -98.015625 C 49.414062 -98.015625 46.53125 -93.226562 46.53125 -83.65625 L 46.53125 -44.546875 C 46.53125 -34.972656 49.5 -30.1875 55.4375 -30.1875 C 61.21875 -30.1875 64.109375 -34.972656 64.109375 -44.546875 Z M 64.109375 -83.65625 "/></g></g></g></svg>