<svg xmlns="http://www.w3.org/2000/svg" xmlns:xlink="http://www.w3.org/1999/xlink" width="1120" zoomAndPan="magnify" viewBox="0 0 840 839.999992" height="1120" preserveAspectRatio="xMidYMid meet" version="1.0"><metadata><ContainsAiGeneratedContent>Yes</ContainsAiGeneratedContent></metadata><defs><g/></defs><g fill="#0b72af" fill-opacity="1"><g transform="translate(11.130777, 423.02517)"><g><path d="M 84.515625 0 C 75.640625 0 68.632812 -0.0664062 63.5 -0.203125 C 58.363281 -0.347656 54.335938 -0.554688 51.421875 -0.828125 C 48.503906 -1.109375 46.28125 -1.316406 44.75 -1.453125 C 43.226562 -1.597656 41.632812 -1.945312 39.96875 -2.5 C 34.144531 -4.164062 29.359375 -6.867188 25.609375 -10.609375 C 21.859375 -14.359375 18.875 -19.910156 16.65625 -27.265625 C 14.4375 -34.628906 12.910156 -44.140625 12.078125 -55.796875 C 11.242188 -67.453125 10.828125 -82.160156 10.828125 -99.921875 L 10.828125 -188.609375 C 10.828125 -192.492188 10.960938 -197.070312 11.234375 -202.34375 C 11.515625 -207.625 11.863281 -212.757812 12.28125 -217.75 C 12.695312 -222.75 13.113281 -227.46875 13.53125 -231.90625 C 13.945312 -236.351562 14.429688 -239.6875 14.984375 -241.90625 C 16.929688 -251.625 20.054688 -259.046875 24.359375 -264.171875 C 28.660156 -269.304688 34.695312 -272.988281 42.46875 -275.21875 C 44.132812 -275.488281 45.867188 -275.765625 47.671875 -276.046875 C 49.472656 -276.328125 51.832031 -276.601562 54.75 -276.875 C 57.664062 -277.15625 61.484375 -277.363281 66.203125 -277.5 C 70.921875 -277.644531 77.023438 -277.71875 84.515625 -277.71875 L 131.984375 -277.71875 L 131.984375 -217.34375 L 118.65625 -217.34375 C 113.664062 -217.34375 109.644531 -217.269531 106.59375 -217.125 C 103.539062 -216.988281 101.039062 -216.78125 99.09375 -216.5 C 97.144531 -216.226562 95.546875 -215.675781 94.296875 -214.84375 C 93.054688 -214.007812 91.878906 -213.035156 90.765625 -211.921875 C 88.265625 -209.429688 86.738281 -206.585938 86.1875 -203.390625 C 85.632812 -200.203125 85.359375 -193.609375 85.359375 -183.609375 L 85.359375 -94.09375 C 85.359375 -84.101562 85.703125 -77.507812 86.390625 -74.3125 C 87.085938 -71.125 88.546875 -68.28125 90.765625 -65.78125 C 91.878906 -64.394531 93.054688 -63.351562 94.296875 -62.65625 C 95.546875 -61.96875 97.144531 -61.484375 99.09375 -61.203125 C 101.039062 -60.921875 103.539062 -60.710938 106.59375 -60.578125 C 109.644531 -60.441406 113.664062 -60.375 118.65625 -60.375 L 134.0625 -60.375 L 134.0625 0 Z M 84.515625 0 "/></g></g></g><g fill="#0b72af" fill-opacity="1"><g transform="translate(149.362278, 423.02517)"><g><path d="M 74.53125 0 C 58.425781 0 46.347656 -0.832031 38.296875 -2.5 C 30.253906 -4.164062 24.148438 -6.941406 19.984375 -10.828125 C 17.765625 -12.765625 16.097656 -14.703125 14.984375 -16.640625 C 13.878906 -18.585938 12.976562 -21.15625 12.28125 -24.34375 C 11.582031 -27.539062 11.164062 -31.847656 11.03125 -37.265625 C 10.894531 -42.679688 10.828125 -49.96875 10.828125 -59.125 L 10.828125 -153.640625 C 10.828125 -162.796875 10.894531 -170.078125 11.03125 -175.484375 C 11.164062 -180.898438 11.582031 -185.273438 12.28125 -188.609375 C 12.976562 -191.941406 13.878906 -194.578125 14.984375 -196.515625 C 16.097656 -198.460938 17.765625 -200.40625 19.984375 -202.34375 C 24.148438 -206.238281 30.253906 -209.015625 38.296875 -210.671875 C 46.347656 -212.335938 58.425781 -213.171875 74.53125 -213.171875 L 111.171875 -213.171875 C 126.992188 -213.171875 138.925781 -212.335938 146.96875 -210.671875 C 155.019531 -209.015625 161.128906 -206.238281 165.296875 -202.34375 C 167.234375 -200.40625 168.828125 -198.460938 170.078125 -196.515625 C 171.328125 -194.578125 172.296875 -191.941406 172.984375 -188.609375 C 173.679688 -185.273438 174.097656 -180.898438 174.234375 -175.484375 C 174.378906 -170.078125 174.453125 -162.796875 174.453125 -153.640625 L 174.453125 -59.125 C 174.453125 -49.96875 174.378906 -42.679688 174.234375 -37.265625 C 174.097656 -31.847656 173.679688 -27.539062 172.984375 -24.34375 C 172.296875 -21.15625 171.328125 -18.585938 170.078125 -16.640625 C 168.828125 -14.703125 167.234375 -12.765625 165.296875 -10.828125 C 161.128906 -6.941406 155.019531 -4.164062 146.96875 -2.5 C 138.925781 -0.832031 126.992188 0 111.171875 0 Z M 108.25 -139.484375 C 108.25 -147.535156 107 -153.363281 104.5 -156.96875 C 102.007812 -160.570312 97.847656 -162.375 92.015625 -162.375 C 82.023438 -162.375 77.03125 -154.742188 77.03125 -139.484375 L 77.03125 -72.453125 C 77.03125 -64.398438 78.273438 -58.566406 80.765625 -54.953125 C 83.265625 -51.347656 87.429688 -49.546875 93.265625 -49.546875 C 103.253906 -49.546875 108.25 -57.179688 108.25 -72.453125 Z M 108.25 -139.484375 "/></g></g></g><g fill="#0b72af" fill-opacity="1"><g transform="translate(334.642415, 423.02517)"><g><path d="M 56.625 0.828125 C 44.6875 0.828125 36.148438 0.0664062 31.015625 -1.453125 C 25.878906 -2.984375 21.785156 -5.96875 18.734375 -10.40625 C 16.234375 -14.289062 14.289062 -20.117188 12.90625 -27.890625 C 11.519531 -35.660156 10.828125 -44.546875 10.828125 -54.546875 L 10.828125 -168.203125 C 10.828125 -178.472656 11.453125 -186.242188 12.703125 -191.515625 C 13.953125 -196.796875 16.238281 -201.101562 19.5625 -204.4375 C 26.226562 -211.09375 35.664062 -214.421875 47.875 -214.421875 L 62.03125 -214.421875 C 67.3125 -214.421875 71.820312 -214.144531 75.5625 -213.59375 C 79.3125 -213.039062 82.644531 -212.140625 85.5625 -210.890625 C 88.476562 -209.640625 91.179688 -207.898438 93.671875 -205.671875 C 96.171875 -203.453125 98.8125 -200.539062 101.59375 -196.9375 L 106.59375 -190.6875 L 106.59375 -213.171875 L 172.796875 -213.171875 L 172.796875 0 L 106.59375 0 L 106.59375 -23.3125 C 103.8125 -18.039062 101.3125 -13.804688 99.09375 -10.609375 C 96.875 -7.421875 94.445312 -4.992188 91.8125 -3.328125 C 89.175781 -1.660156 86.191406 -0.550781 82.859375 0 C 79.523438 0.550781 75.222656 0.828125 69.953125 0.828125 Z M 106.59375 -140.734375 C 106.59375 -156.828125 101.59375 -164.875 91.59375 -164.875 C 81.882812 -164.875 77.03125 -156.828125 77.03125 -140.734375 L 77.03125 -74.9375 C 77.03125 -58.84375 82.023438 -50.796875 92.015625 -50.796875 C 101.734375 -50.796875 106.59375 -58.84375 106.59375 -74.9375 Z M 106.59375 -140.734375 "/></g></g></g><g fill="#0b72af" fill-opacity="1"><g transform="translate(519.506207, 423.02517)"><g><path d="M 57.453125 0 C 45.242188 0 36.082031 -1.039062 29.96875 -3.125 C 23.863281 -5.207031 19.148438 -9.023438 15.828125 -14.578125 C 14.710938 -16.515625 13.804688 -18.242188 13.109375 -19.765625 C 12.421875 -21.296875 11.9375 -23.585938 11.65625 -26.640625 C 11.375 -29.703125 11.164062 -34.003906 11.03125 -39.546875 C 10.894531 -45.097656 10.828125 -53.007812 10.828125 -63.28125 L 10.828125 -165.296875 C 10.828125 -170.847656 10.828125 -175.148438 10.828125 -178.203125 C 10.828125 -181.253906 10.894531 -183.679688 11.03125 -185.484375 C 11.164062 -187.285156 11.441406 -188.742188 11.859375 -189.859375 C 12.273438 -190.972656 12.765625 -192.363281 13.328125 -194.03125 C 14.429688 -197.632812 16.023438 -200.6875 18.109375 -203.1875 C 20.191406 -205.6875 22.96875 -207.628906 26.4375 -209.015625 C 29.90625 -210.398438 34.207031 -211.4375 39.34375 -212.125 C 44.476562 -212.820312 50.65625 -213.171875 57.875 -213.171875 L 117.828125 -213.171875 L 117.828125 -162.796875 L 95.765625 -162.796875 C 91.878906 -162.796875 88.6875 -162.445312 86.1875 -161.75 C 83.6875 -161.0625 81.742188 -159.742188 80.359375 -157.796875 C 78.972656 -155.859375 78.070312 -153.15625 77.65625 -149.6875 C 77.238281 -146.21875 77.03125 -141.566406 77.03125 -135.734375 L 77.03125 -75.78125 C 77.03125 -70.226562 77.238281 -65.785156 77.65625 -62.453125 C 78.070312 -59.117188 78.972656 -56.550781 80.359375 -54.75 C 81.742188 -52.945312 83.753906 -51.765625 86.390625 -51.203125 C 89.023438 -50.648438 92.566406 -50.375 97.015625 -50.375 L 117.828125 -50.375 L 117.828125 0 Z M 57.453125 0 "/></g></g></g><g fill="#0b72af" fill-opacity="1"><g transform="translate(641.499615, 423.02517)"><g><path d="M 12.078125 -277.71875 L 78.28125 -277.71875 L 78.28125 -190.28125 C 81.050781 -194.71875 83.894531 -198.460938 86.8125 -201.515625 C 89.726562 -204.566406 92.988281 -207.0625 96.59375 -209 C 100.207031 -210.945312 104.375 -212.269531 109.09375 -212.96875 C 113.8125 -213.664062 119.359375 -214.015625 125.734375 -214.015625 C 139.054688 -214.015625 149.1875 -212.691406 156.125 -210.046875 C 163.070312 -207.410156 168.070312 -202.898438 171.125 -196.515625 C 171.957031 -194.578125 172.648438 -192.84375 173.203125 -191.3125 C 173.753906 -189.789062 174.171875 -187.296875 174.453125 -183.828125 C 174.734375 -180.359375 174.941406 -175.359375 175.078125 -168.828125 C 175.210938 -162.304688 175.28125 -153.078125 175.28125 -141.140625 L 175.28125 0 L 109.09375 0 L 109.09375 -140.734375 C 109.09375 -156.828125 103.816406 -164.875 93.265625 -164.875 C 83.273438 -164.875 78.28125 -156.546875 78.28125 -139.890625 L 78.28125 0 L 12.078125 0 Z M 12.078125 -277.71875 "/></g></g></g><g fill="#040333" fill-opacity="1"><g transform="translate(246.339015, 714.73578)"><g><path d="M 13.328125 -277.71875 L 87.859375 -277.71875 L 87.859375 -169.046875 L 119.5 -169.046875 L 119.5 -277.71875 L 194.03125 -277.71875 L 194.03125 0 L 119.5 0 L 119.5 -108.671875 L 87.859375 -108.671875 L 87.859375 0 L 13.328125 0 Z M 13.328125 -277.71875 "/></g></g></g><g fill="#040333" fill-opacity="1"><g transform="translate(453.686229, 714.73578)"><g><path d="M 81.609375 0 C 73.003906 0 65.785156 -0.207031 59.953125 -0.625 C 54.128906 -1.039062 49.132812 -1.800781 44.96875 -2.90625 C 40.800781 -4.019531 37.191406 -5.546875 34.140625 -7.484375 C 31.085938 -9.429688 28.171875 -11.929688 25.390625 -14.984375 C 22.898438 -17.484375 20.75 -20.191406 18.9375 -23.109375 C 17.132812 -26.023438 15.75 -29.351562 14.78125 -33.09375 C 13.8125 -36.84375 13.117188 -41.285156 12.703125 -46.421875 C 12.285156 -51.554688 12.078125 -57.875 12.078125 -65.375 L 12.078125 -213.171875 L 78.28125 -213.171875 L 78.28125 -72.453125 C 78.28125 -57.179688 83.273438 -49.546875 93.265625 -49.546875 C 99.097656 -49.546875 103.257812 -51.347656 105.75 -54.953125 C 108.25 -58.566406 109.5 -64.398438 109.5 -72.453125 L 109.5 -213.171875 L 175.703125 -213.171875 L 175.703125 -65.375 C 175.703125 -58.15625 175.492188 -51.90625 175.078125 -46.625 C 174.660156 -41.351562 173.96875 -36.84375 173 -33.09375 C 172.03125 -29.351562 170.640625 -26.023438 168.828125 -23.109375 C 167.023438 -20.191406 164.875 -17.484375 162.375 -14.984375 C 159.320312 -11.929688 156.335938 -9.429688 153.421875 -7.484375 C 150.515625 -5.546875 146.976562 -4.019531 142.8125 -2.90625 C 138.644531 -1.800781 133.644531 -1.039062 127.8125 -0.625 C 121.988281 -0.207031 114.773438 0 106.171875 0 Z M 81.609375 0 "/></g></g></g><g fill="#040333" fill-opacity="1"><g transform="translate(641.464524, 714.73578)"><g><path d="M 114.921875 0.828125 C 109.640625 0.828125 105.265625 0.550781 101.796875 0 C 98.328125 -0.550781 95.34375 -1.660156 92.84375 -3.328125 C 90.34375 -4.992188 87.984375 -7.421875 85.765625 -10.609375 C 83.546875 -13.804688 81.050781 -18.039062 78.28125 -23.3125 L 78.28125 0 L 12.078125 0 L 12.078125 -277.71875 L 78.28125 -277.71875 L 78.28125 -191.109375 L 83.265625 -197.359375 C 86.046875 -200.960938 88.613281 -203.875 90.96875 -206.09375 C 93.332031 -208.3125 95.96875 -210.046875 98.875 -211.296875 C 101.789062 -212.546875 105.125 -213.378906 108.875 -213.796875 C 112.625 -214.210938 117.273438 -214.421875 122.828125 -214.421875 L 136.984375 -214.421875 C 151.421875 -214.421875 161.828125 -209.984375 168.203125 -201.109375 C 170.429688 -198.046875 171.957031 -194.015625 172.78125 -189.015625 C 173.613281 -184.023438 174.03125 -177.226562 174.03125 -168.625 L 174.03125 -54.546875 C 174.03125 -44.828125 173.335938 -36.007812 171.953125 -28.09375 C 170.566406 -20.1875 168.625 -14.289062 166.125 -10.40625 C 163.070312 -5.96875 158.976562 -2.984375 153.84375 -1.453125 C 148.707031 0.0664062 140.171875 0.828125 128.234375 0.828125 Z M 107.84375 -140.734375 C 107.84375 -156.828125 102.84375 -164.875 92.84375 -164.875 C 83.132812 -164.875 78.28125 -156.828125 78.28125 -140.734375 L 78.28125 -74.9375 C 78.28125 -58.84375 83.273438 -50.796875 93.265625 -50.796875 C 102.984375 -50.796875 107.84375 -58.84375 107.84375 -74.9375 Z M 107.84375 -140.734375 "/></g></g></g></svg>